<svg width="600" height="400" viewBox="0 0 600 400" xmlns="http://www.w3.org/2000/svg">
  <defs>
    <linearGradient id="bg" x1="0%" y1="0%" x2="100%" y2="100%">
      <stop offset="0%" style="stop-color:#1e40af;stop-opacity:1" />
      <stop offset="50%" style="stop-color:#3730a3;stop-opacity:1" />
      <stop offset="100%" style="stop-color:#7c3aed;stop-opacity:1" />
    </linearGradient>
    <linearGradient id="chartGrad" x1="0%" y1="0%" x2="0%" y2="100%">
      <stop offset="0%" style="stop-color:#60a5fa;stop-opacity:0.8" />
      <stop offset="100%" style="stop-color:#3b82f6;stop-opacity:0.4" />
    </linearGradient>
  </defs>

  <!-- Background -->
  <rect width="600" height="400" fill="url(#bg)"/>

  <!-- Financial Data Visualization Elements -->

  <!-- AI Brain Network -->
  <g transform="translate(450, 80)" opacity="0.6">
    <circle cx="0" cy="0" r="30" fill="none" stroke="#fbbf24" stroke-width="2" opacity="0.7">
      <animate attributeName="r" values="25;35;25" dur="3s" repeatCount="indefinite"/>
    </circle>
    <circle cx="0" cy="0" r="4" fill="#fbbf24"/>
    <line x1="0" y1="0" x2="20" y2="-15" stroke="#fbbf24" stroke-width="1" opacity="0.8"/>
    <line x1="0" y1="0" x2="-18" y2="12" stroke="#fbbf24" stroke-width="1" opacity="0.8"/>
    <line x1="0" y1="0" x2="15" y2="20" stroke="#fbbf24" stroke-width="1" opacity="0.8"/>
    <circle cx="20" cy="-15" r="3" fill="#fbbf24" opacity="0.9"/>
    <circle cx="-18" cy="12" r="3" fill="#fbbf24" opacity="0.9"/>
    <circle cx="15" cy="20" r="3" fill="#fbbf24" opacity="0.9"/>
  </g>

  <!-- Financial Chart Bars -->
  <g transform="translate(80, 180)">
    <rect x="0" y="100" width="25" height="80" fill="url(#chartGrad)">
      <animate attributeName="height" values="60;100;80;120;80" dur="4s" repeatCount="indefinite"/>
      <animate attributeName="y" values="120;80;100;60;100" dur="4s" repeatCount="indefinite"/>
    </rect>
    <rect x="35" y="120" width="25" height="60" fill="url(#chartGrad)">
      <animate attributeName="height" values="80;60;100;70;60" dur="4s" begin="0.5s" repeatCount="indefinite"/>
      <animate attributeName="y" values="100;120;80;110;120" dur="4s" begin="0.5s" repeatCount="indefinite"/>
    </rect>
    <rect x="70" y="90" width="25" height="90" fill="url(#chartGrad)">
      <animate attributeName="height" values="90;120;70;110;90" dur="4s" begin="1s" repeatCount="indefinite"/>
      <animate attributeName="y" values="90;60;110;70;90" dur="4s" begin="1s" repeatCount="indefinite"/>
    </rect>
    <rect x="105" y="110" width="25" height="70" fill="url(#chartGrad)">
      <animate attributeName="height" values="70;90;110;80;70" dur="4s" begin="1.5s" repeatCount="indefinite"/>
      <animate attributeName="y" values="110;90;70;100;110" dur="4s" begin="1.5s" repeatCount="indefinite"/>
    </rect>
  </g>

  <!-- Financial Trend Line -->
  <g transform="translate(250, 200)" opacity="0.8">
    <polyline points="0,80 40,60 80,40 120,30 160,20 200,15"
              fill="none" stroke="#10b981" stroke-width="3" opacity="0.9">
      <animate attributeName="stroke-dasharray" values="0,1000;220,1000;440,1000" dur="5s" repeatCount="indefinite"/>
    </polyline>
    <circle cx="0" cy="80" r="3" fill="#10b981"/>
    <circle cx="200" cy="15" r="4" fill="#10b981">
      <animate attributeName="r" values="3;6;3" dur="2s" repeatCount="indefinite"/>
    </circle>
  </g>

  <!-- Digital Currency Symbols -->
  <g transform="translate(350, 300)" opacity="0.7">
    <circle cx="0" cy="0" r="15" fill="none" stroke="#f59e0b" stroke-width="2"/>
    <text x="0" y="6" text-anchor="middle" fill="#f59e0b" font-family="Arial" font-size="16" font-weight="bold">$</text>
    <circle cx="40" cy="-10" r="12" fill="none" stroke="#06b6d4" stroke-width="2"/>
    <text x="40" y="-4" text-anchor="middle" fill="#06b6d4" font-family="Arial" font-size="12" font-weight="bold">₿</text>
    <circle cx="25" cy="25" r="10" fill="none" stroke="#8b5cf6" stroke-width="2"/>
    <text x="25" y="30" text-anchor="middle" fill="#8b5cf6" font-family="Arial" font-size="10" font-weight="bold">Ξ</text>
  </g>

  <!-- Data Flow Particles -->
  <g opacity="0.5">
    <circle cx="100" cy="100" r="2" fill="#60a5fa">
      <animateMotion dur="6s" repeatCount="indefinite">
        <path d="M0,0 Q200,50 400,0 T600,100"/>
      </animateMotion>
    </circle>
    <circle cx="150" cy="350" r="2" fill="#34d399">
      <animateMotion dur="8s" repeatCount="indefinite">
        <path d="M0,0 Q300,-100 500,50"/>
      </animateMotion>
    </circle>
    <circle cx="50" cy="250" r="2" fill="#fbbf24">
      <animateMotion dur="7s" repeatCount="indefinite">
        <path d="M0,0 Q250,100 450,-50 T600,200"/>
      </animateMotion>
    </circle>
  </g>

  <!-- Title Overlay -->
  <g transform="translate(50, 50)">
    <rect x="0" y="0" width="320" height="60" fill="rgba(0,0,0,0.3)" rx="8"/>
    <text x="160" y="25" text-anchor="middle" fill="white" font-family="Arial" font-size="18" font-weight="bold">
      AI in Financial Services
    </text>
    <text x="160" y="45" text-anchor="middle" fill="#cbd5e1" font-family="Arial" font-size="12">
      2024 Industry Analysis &amp; Trends
    </text>
  </g>

  <!-- Data Points -->
  <g transform="translate(480, 250)" opacity="0.6">
    <rect x="0" y="0" width="3" height="20" fill="#3b82f6">
      <animate attributeName="height" values="15;25;20;30;15" dur="3s" repeatCount="indefinite"/>
    </rect>
    <rect x="8" y="0" width="3" height="15" fill="#10b981">
      <animate attributeName="height" values="20;15;25;18;20" dur="3s" begin="0.5s" repeatCount="indefinite"/>
    </rect>
    <rect x="16" y="0" width="3" height="25" fill="#f59e0b">
      <animate attributeName="height" values="25;18;30;22;25" dur="3s" begin="1s" repeatCount="indefinite"/>
    </rect>
  </g>

</svg>